<svg width="1024" height="1024" viewBox="0 0 1024 1024" fill="none" xmlns="http://www.w3.org/2000/svg">
<path d="M330.091 233V791.545H212V233H330.091Z" fill="white"/>
<path d="M541.25 549.364V791.545H425.068V372.636H535.795V446.545H540.705C549.977 422.182 565.523 402.909 587.341 388.727C609.159 374.364 635.614 367.182 666.705 367.182C695.795 367.182 721.159 373.545 742.795 386.273C764.432 399 781.25 417.182 793.25 440.818C805.25 464.273 811.25 492.273 811.25 524.818V791.545H695.068V545.545C695.25 519.909 688.705 499.909 675.432 485.545C662.159 471 643.886 463.727 620.614 463.727C604.977 463.727 591.159 467.091 579.159 473.818C567.341 480.545 558.068 490.364 551.341 503.273C544.795 516 541.432 531.364 541.25 549.364Z" fill="white"/>
</svg>
