<svg width="512" height="512" viewBox="0 0 512 512" fill="none" xmlns="http://www.w3.org/2000/svg">
<mask id="mask0_11_2" style="mask-type:luminance" maskUnits="userSpaceOnUse" x="64" y="16" width="385" height="480">
<path d="M147.951 493.544C137.354 489.127 129.942 479.36 128.54 467.965L93.5037 183.105C89.86 153.485 112.969 127.359 142.813 127.359H370.322C400.166 127.359 423.275 153.485 419.631 183.105L384.821 466.128C383.285 478.604 374.997 489.219 363.264 493.732C359.366 495.231 355.225 496 351.049 496H160.233C156.018 496 151.843 495.165 147.951 493.544Z" fill="white"/>
<path d="M90.8799 42.8801C82.1999 42.8801 74.0524 47.0719 69.0068 54.1357C62.3311 63.4818 62.3311 76.0384 69.0068 85.3844C74.0524 92.4483 82.1999 96.64 90.8799 96.64H421.575C429.542 96.64 437.089 93.0553 442.122 86.8779C449.847 77.3953 450.083 63.859 442.69 54.1156L442.342 53.656C437.193 46.8669 429.162 42.8801 420.642 42.8801H90.8799Z" fill="white"/>
<path d="M173.285 16C169.761 16 166.687 18.3986 165.833 21.8188L160.972 41.2592C160.174 44.4542 164.251 46.5237 166.358 43.9947C166.948 43.2883 167.819 42.88 168.738 42.88H344.347C345.303 42.88 346.215 43.2805 346.861 43.9853C349.279 46.6246 353.611 44.2291 352.661 40.7779L347.488 21.9647C346.519 18.4421 343.315 16 339.66 16H173.285Z" fill="white"/>
</mask>
<g mask="url(#mask0_11_2)">
<path d="M-103.73 207.363L-68.6937 492.224L325.773 443.706L290.738 158.845L-103.73 207.363ZM160.233 694.72H351.049V297.28H160.233V694.72ZM582.055 490.386L616.865 207.363L222.397 158.845L187.587 441.869L582.055 490.386ZM370.322 -71.3598H142.813V326.079H370.322V-71.3598ZM90.8799 241.6H420.641V-155.84H90.8799V241.6ZM284.023 173.76L284.372 174.218L601.009 -65.9882L600.66 -66.4476L284.023 173.76ZM421.575 -102.08H90.8799V295.36H421.575V-102.08ZM353.758 89.4565L358.619 70.0162L-26.954 -26.3776L-31.8142 -6.93671L353.758 89.4565ZM173.285 214.72H339.66V-182.72H173.285V214.72ZM155.881 74.6566L161.054 93.4697L544.268 -11.914L539.094 -30.7266L155.881 74.6566ZM344.347 -155.84H168.738V241.6H344.347V-155.84ZM168.738 -155.84C108.844 -155.84 52.0426 -129.236 13.6974 -83.2225L319.02 171.213C281.851 215.813 226.795 241.6 168.738 241.6V-155.84ZM493.348 -90.2943C455.062 -132.06 401.005 -155.84 344.347 -155.84V241.6C289.601 241.6 237.367 218.623 200.373 178.266L493.348 -90.2943ZM161.054 93.4697C106.684 -104.238 354.792 -241.445 493.348 -90.2943L200.373 178.266C343.765 334.694 600.536 192.696 544.268 -11.914L161.054 93.4697ZM339.66 214.72C253.858 214.72 178.632 157.389 155.881 74.6566L539.094 -30.7266C514.405 -120.505 432.771 -182.72 339.66 -182.72V214.72ZM358.619 70.0162C337.358 155.059 260.947 214.72 173.285 214.72V-182.72C78.5748 -182.72 -3.98318 -118.261 -26.954 -26.3776L358.619 70.0162ZM-31.8142 -6.93671C-83.8347 201.146 181.707 335.986 319.02 171.213L13.6974 -83.2225C146.793 -242.937 404.182 -112.237 353.758 89.4565L-31.8142 -6.93671ZM90.8799 -102.08C146.376 -102.08 198.456 -75.2788 230.712 -30.1199L-92.6978 200.887C-50.3501 260.174 18.0227 295.36 90.8799 295.36V-102.08ZM288.067 -38.6485C320.772 -78.7862 369.799 -102.08 421.575 -102.08V295.36C489.285 295.36 553.405 264.897 596.176 212.404L288.067 -38.6485ZM284.372 174.218C236.344 110.909 237.87 22.9568 288.067 -38.6485L596.176 212.404C661.824 131.835 663.82 16.8089 601.009 -65.9882L284.372 174.218ZM420.641 241.6C366.998 241.6 316.446 216.498 284.023 173.76L600.66 -66.4476C557.938 -122.762 491.327 -155.84 420.641 -155.84V241.6ZM230.712 169.64C198.456 214.799 146.376 241.6 90.8799 241.6V-155.84C18.0227 -155.84 -50.3501 -120.654 -92.6978 -61.3672L230.712 169.64ZM-92.6978 -61.3672C-148.727 17.0728 -148.727 122.447 -92.6978 200.887L230.712 -30.1199C273.39 29.6279 273.39 109.892 230.712 169.64L-92.6978 -61.3672ZM616.865 207.363C635.08 59.2636 519.537 -71.3598 370.322 -71.3598V326.079C280.792 326.079 211.469 247.706 222.397 158.845L616.865 207.363ZM434.6 679.206C514.858 648.337 571.557 575.733 582.055 490.386L187.587 441.869C195.015 381.477 235.137 330.1 291.927 308.258L434.6 679.206ZM351.049 694.72C379.615 694.72 407.937 689.46 434.6 679.206L291.927 308.258C310.794 301.002 330.836 297.28 351.049 297.28V694.72ZM71.5218 676.976C99.6314 688.69 129.782 694.72 160.233 694.72V297.28C182.254 297.28 204.057 301.64 224.382 310.11L71.5218 676.976ZM-68.6937 492.224C-58.5695 574.538 -5.03313 645.079 71.5218 676.976L224.382 310.11C279.74 333.176 318.453 384.184 325.773 443.706L-68.6937 492.224ZM290.738 158.845C301.666 247.706 232.34 326.079 142.813 326.079V-71.3598C-6.4029 -71.3598 -121.945 59.2636 -103.73 207.363L290.738 158.845Z" fill="#C80000"/>
</g>
</svg>
