<svg width="24" height="24" viewBox="0 0 24 24" fill="none" xmlns="http://www.w3.org/2000/svg">
<path d="M12.0029 15.75C13.1843 15.75 14.1874 15.3365 15.0124 14.5095C15.8374 13.6825 16.2499 12.6783 16.2499 11.497C16.2499 10.3156 15.8364 9.3125 15.0094 8.4875C14.1824 7.6625 13.1783 7.25 11.9969 7.25C10.8156 7.25 9.81244 7.6635 8.98744 8.4905C8.16244 9.3175 7.74994 10.3217 7.74994 11.503C7.74994 12.6844 8.16344 13.6875 8.99044 14.5125C9.81744 15.3375 10.8216 15.75 12.0029 15.75ZM11.9939 14.3C11.2146 14.3 10.5541 14.0271 10.0124 13.4815C9.47079 12.936 9.19994 12.2735 9.19994 11.494C9.19994 10.7147 9.4728 10.0541 10.0184 9.5125C10.5639 8.97085 11.2264 8.7 12.0059 8.7C12.7853 8.7 13.4458 8.97285 13.9874 9.5185C14.5291 10.064 14.7999 10.7265 14.7999 11.506C14.7999 12.2853 14.5271 12.9459 13.9814 13.4875C13.4359 14.0292 12.7734 14.3 11.9939 14.3ZM11.9999 19C9.56659 19 7.36659 18.3083 5.39994 16.925C3.90743 15.8752 2.70288 14.5806 1.7863 13.0412C1.22113 12.092 1.22113 10.908 1.7863 9.9588C2.70288 8.4194 3.90743 7.1248 5.39994 6.075C7.36659 4.69166 9.56659 4 11.9999 4C14.4333 4 16.6333 4.69166 18.5999 6.075C20.0924 7.1248 21.297 8.4194 22.2136 9.9588C22.7787 10.908 22.7787 12.092 22.2136 13.0412C21.297 14.5806 20.0924 15.8752 18.5999 16.925C16.6333 18.3083 14.4333 19 11.9999 19ZM11.9957 17.5C14.0152 17.5 15.8708 16.9542 17.5624 15.8625C18.7005 15.1281 19.6556 14.2296 20.4278 13.1671C21.1497 12.1738 21.1497 10.8262 20.4282 9.8327C19.6566 8.77025 18.7028 7.87185 17.5667 7.1375C15.8778 6.04585 14.0237 5.5 12.0042 5.5C9.98469 5.5 8.12909 6.04585 6.43744 7.1375C5.30794 7.8664 4.35489 8.7569 3.57832 9.809C2.83677 10.8137 2.83682 12.1863 3.578 13.1912C4.35392 14.2432 5.30564 15.1337 6.43319 15.8625C8.12204 16.9542 9.9762 17.5 11.9957 17.5Z" fill="rgb(255, 255, 255, 0.75)"/>
</svg>
